<svg width="256" height="256" viewBox="0 0 256 256" fill="none" xmlns="http://www.w3.org/2000/svg">
<g filter="url(#filter0_dii_37_365)">
<path d="M120.837 68.7545C123.434 63.988 129.924 63.1372 133.662 67.0728L189.757 126.125C193.426 129.987 192.366 136.288 187.636 138.738L168.066 148.873L152.597 133.403C150.058 130.865 145.942 130.865 143.403 133.403C140.865 135.941 140.865 140.058 143.403 142.596L155.953 155.145L115.361 176.168L102.597 163.403C100.058 160.865 95.9418 160.865 93.4034 163.403C90.8651 165.941 90.8652 170.058 93.4034 172.596L103.248 182.441L64.6593 202.427C57.6528 206.055 50.1808 198.424 53.9561 191.496L93.2286 119.421L104.903 131.096C107.442 133.635 111.558 133.635 114.097 131.096C116.635 128.558 116.635 124.441 114.097 121.903L99.713 107.519L120.837 68.7545Z" fill="#FE9820"/>
</g>
<g filter="url(#filter1_dii_37_365)">
<path d="M184.318 51.8905C184.318 51.8905 183.779 79.1159 183.147 86.8246C183.089 87.534 183.059 87.8887 183.157 88.1164C183.247 88.3283 183.379 88.4771 183.579 88.5915C183.794 88.7146 184.114 88.7256 184.753 88.7477C190.331 88.9407 206.69 88.3657 205.477 74.8542C205.471 74.7825 205.467 74.7467 205.46 74.7035C205.454 74.6716 205.442 74.6209 205.432 74.5898C205.42 74.5478 205.409 74.5211 205.387 74.4677C202.079 66.2301 179.646 70.349 166.77 72.7786" stroke="#E40000" stroke-width="9" stroke-linecap="round" shape-rendering="crispEdges"/>
</g>
<g clip-path="url(#clip0_37_365)">
<g filter="url(#filter2_g_37_365)">
<path d="M37.4172 164.481C37.4547 164.523 37.4935 164.561 37.5377 164.596C43.5899 169.425 59.9359 176.103 77.4735 164.544C99.4735 150.044 122.473 147.544 78.4735 119.044C43.4925 96.3862 31.6212 133.741 30.0027 155.635C29.983 155.902 30.073 156.157 30.2499 156.358L37.4172 164.481Z" fill="#CD7610"/>
</g>
</g>
<g clip-path="url(#clip1_37_365)">
<g filter="url(#filter3_g_37_365)">
<path d="M135.742 121.81C135.79 121.84 135.837 121.865 135.89 121.887C143.048 124.839 160.607 126.7 174.231 110.713C191.321 90.6593 212.714 81.8517 162.517 66.7356C122.609 54.718 121.613 93.901 126.157 115.379C126.212 115.641 126.37 115.861 126.596 116.005L135.742 121.81Z" fill="#CD7610"/>
</g>
<g filter="url(#filter4_g_37_365)">
<path d="M143.218 100.834C143.247 100.852 143.276 100.868 143.308 100.881C147.66 102.676 158.335 103.807 166.618 94.0878C177.009 81.8956 190.015 76.5408 159.497 67.3508C135.234 60.0445 134.628 83.8665 137.391 96.9246C137.425 97.0836 137.52 97.2176 137.658 97.3047L143.218 100.834Z" fill="#B86C12"/>
</g>
</g>
<defs>
<filter id="filter0_dii_37_365" x="42.9415" y="54.5816" width="159.016" height="158.78" filterUnits="userSpaceOnUse" color-interpolation-filters="sRGB">
<feFlood flood-opacity="0" result="BackgroundImageFix"/>
<feColorMatrix in="SourceAlpha" type="matrix" values="0 0 0 0 0 0 0 0 0 0 0 0 0 0 0 0 0 0 127 0" result="hardAlpha"/>
<feOffset/>
<feGaussianBlur stdDeviation="5"/>
<feComposite in2="hardAlpha" operator="out"/>
<feColorMatrix type="matrix" values="0 0 0 0 0 0 0 0 0 0 0 0 0 0 0 0 0 0 0.12 0"/>
<feBlend mode="normal" in2="BackgroundImageFix" result="effect1_dropShadow_37_365"/>
<feBlend mode="normal" in="SourceGraphic" in2="effect1_dropShadow_37_365" result="shape"/>
<feColorMatrix in="SourceAlpha" type="matrix" values="0 0 0 0 0 0 0 0 0 0 0 0 0 0 0 0 0 0 127 0" result="hardAlpha"/>
<feOffset dx="-0.5" dy="-0.5"/>
<feGaussianBlur stdDeviation="1"/>
<feComposite in2="hardAlpha" operator="arithmetic" k2="-1" k3="1"/>
<feColorMatrix type="matrix" values="0 0 0 0 0 0 0 0 0 0 0 0 0 0 0 0 0 0 0.11 0"/>
<feBlend mode="normal" in2="shape" result="effect2_innerShadow_37_365"/>
<feColorMatrix in="SourceAlpha" type="matrix" values="0 0 0 0 0 0 0 0 0 0 0 0 0 0 0 0 0 0 127 0" result="hardAlpha"/>
<feOffset dx="0.5" dy="0.5"/>
<feGaussianBlur stdDeviation="1"/>
<feComposite in2="hardAlpha" operator="arithmetic" k2="-1" k3="1"/>
<feColorMatrix type="matrix" values="0 0 0 0 1 0 0 0 0 1 0 0 0 0 1 0 0 0 0.23 0"/>
<feBlend mode="normal" in2="effect2_innerShadow_37_365" result="effect3_innerShadow_37_365"/>
</filter>
<filter id="filter1_dii_37_365" x="152.269" y="37.3904" width="67.7715" height="65.883" filterUnits="userSpaceOnUse" color-interpolation-filters="sRGB">
<feFlood flood-opacity="0" result="BackgroundImageFix"/>
<feColorMatrix in="SourceAlpha" type="matrix" values="0 0 0 0 0 0 0 0 0 0 0 0 0 0 0 0 0 0 127 0" result="hardAlpha"/>
<feOffset/>
<feGaussianBlur stdDeviation="5"/>
<feComposite in2="hardAlpha" operator="out"/>
<feColorMatrix type="matrix" values="0 0 0 0 0 0 0 0 0 0 0 0 0 0 0 0 0 0 0.18 0"/>
<feBlend mode="normal" in2="BackgroundImageFix" result="effect1_dropShadow_37_365"/>
<feBlend mode="normal" in="SourceGraphic" in2="effect1_dropShadow_37_365" result="shape"/>
<feColorMatrix in="SourceAlpha" type="matrix" values="0 0 0 0 0 0 0 0 0 0 0 0 0 0 0 0 0 0 127 0" result="hardAlpha"/>
<feOffset dx="-1" dy="-1"/>
<feGaussianBlur stdDeviation="2"/>
<feComposite in2="hardAlpha" operator="arithmetic" k2="-1" k3="1"/>
<feColorMatrix type="matrix" values="0 0 0 0 1 0 0 0 0 1 0 0 0 0 1 0 0 0 0.25 0"/>
<feBlend mode="normal" in2="shape" result="effect2_innerShadow_37_365"/>
<feColorMatrix in="SourceAlpha" type="matrix" values="0 0 0 0 0 0 0 0 0 0 0 0 0 0 0 0 0 0 127 0" result="hardAlpha"/>
<feOffset dx="1" dy="1"/>
<feGaussianBlur stdDeviation="2"/>
<feComposite in2="hardAlpha" operator="arithmetic" k2="-1" k3="1"/>
<feColorMatrix type="matrix" values="0 0 0 0 0 0 0 0 0 0 0 0 0 0 0 0 0 0 0.07 0"/>
<feBlend mode="normal" in2="effect2_innerShadow_37_365" result="effect3_innerShadow_37_365"/>
</filter>
<filter id="filter2_g_37_365" x="17.7" y="99.7" width="98.0966" height="83.5493" filterUnits="userSpaceOnUse" color-interpolation-filters="sRGB">
<feFlood flood-opacity="0" result="BackgroundImageFix"/>
<feBlend mode="normal" in="SourceGraphic" in2="BackgroundImageFix" result="shape"/>
<feTurbulence type="fractalNoise" baseFrequency="0.2222222238779068 0.2222222238779068" numOctaves="3" seed="4546" />
<feDisplacementMap in="shape" scale="24.600000381469727" xChannelSelector="R" yChannelSelector="G" result="displacedImage" width="100%" height="100%" />
<feMerge result="effect1_texture_37_365">
<feMergeNode in="displacedImage"/>
</feMerge>
</filter>
<filter id="filter3_g_37_365" x="107.904" y="48.0929" width="102.23" height="92.1764" filterUnits="userSpaceOnUse" color-interpolation-filters="sRGB">
<feFlood flood-opacity="0" result="BackgroundImageFix"/>
<feBlend mode="normal" in="SourceGraphic" in2="BackgroundImageFix" result="shape"/>
<feTurbulence type="fractalNoise" baseFrequency="0.18181818723678589 0.18181818723678589" numOctaves="3" seed="4546" />
<feDisplacementMap in="shape" scale="32.799999237060547" xChannelSelector="R" yChannelSelector="G" result="displacedImage" width="100%" height="100%" />
<feMerge result="effect1_texture_37_365">
<feMergeNode in="displacedImage"/>
</feMerge>
</filter>
<filter id="filter4_g_37_365" x="132.164" y="61.8873" width="50.4112" height="44.2988" filterUnits="userSpaceOnUse" color-interpolation-filters="sRGB">
<feFlood flood-opacity="0" result="BackgroundImageFix"/>
<feBlend mode="normal" in="SourceGraphic" in2="BackgroundImageFix" result="shape"/>
<feTurbulence type="fractalNoise" baseFrequency="0.18181818723678589 0.18181818723678589" numOctaves="3" seed="4546" />
<feDisplacementMap in="shape" scale="8.1999998092651367" xChannelSelector="R" yChannelSelector="G" result="displacedImage" width="100%" height="100%" />
<feMerge result="effect1_texture_37_365">
<feMergeNode in="displacedImage"/>
</feMerge>
</filter>
<clipPath id="clip0_37_365">
<rect width="48.651" height="79.9582" fill="white" transform="translate(94.7908 116.328) rotate(28.5476)"/>
</clipPath>
<clipPath id="clip1_37_365">
<rect x="63.6487" y="127.606" width="92.4658" height="88.9602" rx="8" transform="rotate(-43.4828 63.6487 127.606)" fill="white"/>
</clipPath>
</defs>
</svg>
